<?xml version="1.0" encoding="utf-8"?>
<!DOCTYPE svg PUBLIC "-//W3C//DTD SVG 20010904//EN" "http://www.w3.org/TR/2001/REC-SVG-20010904/DTD/svg10.dtd">
<svg version="1.0" xmlns="http://www.w3.org/2000/svg" width="573px" height="549px" viewBox="0 0 573 549" preserveAspectRatio="xMidYMid meet">
 <g fill="#d41920">
  <path d="M282.6 521.6 c-0.9 -1.4 -1.6 -2.9 -1.6 -3.4 0 -0.5 -0.7 -1.5 -1.5 -2.2 -0.8 -0.6 -3.1 -4.6 -5.2 -8.8 -3.9 -7.9 -9.5 -17.7 -14.3 -24.7 -1.5 -2.2 -5.8 -9.2 -9.5 -15.5 -17 -28.8 -29.7 -45.3 -51.9 -67.6 -19 -19 -32.9 -30.2 -72 -58.1 -37.6 -26.7 -57.6 -41.9 -70.4 -53.3 -33.2 -29.6 -45.9 -58.4 -42.2 -96.3 1.2 -12.8 4.2 -30.8 6.1 -36.7 2.3 -6.9 7.2 -15.4 11.5 -19.9 2.4 -2.5 4.4 -4.9 4.4 -5.3 0 -0.4 0.6 -0.8 1.4 -0.8 1.1 0 1.4 1.9 1.2 8.7 -0.1 9.6 1.4 13.9 6.4 17.3 1.7 1.2 36.8 8.7 108 22.9 58 11.7 106.2 21.5 107 22 1.1 0.6 1.7 3.5 2.3 10.2 0.9 11.5 1.8 14.9 5.7 21.7 3.6 6.2 9.2 10.5 16.6 12.9 5.1 1.6 5.7 1.6 10.8 0 7.4 -2.4 13 -6.7 16.6 -12.9 3.9 -6.8 4.8 -10.2 5.7 -21.7 0.6 -6.7 1.2 -9.6 2.3 -10.2 0.8 -0.5 48.8 -10.5 106.5 -22.4 57.8 -11.8 106 -21.9 107.1 -22.4 4.3 -1.9 7.8 -7.8 8.2 -14.2 0.3 -3.7 0.9 -5.9 1.6 -5.9 1.8 0 7.3 11.8 11.4 24.5 2.5 7.6 2.4 49.8 -0.1 61.3 -5.9 27.3 -19.6 48.8 -45.9 71.9 -15.2 13.3 -27 22.3 -61 46.1 -57.9 40.6 -76.5 55.7 -95.4 77.4 -20.1 23 -32.1 41.6 -51.3 79.3 -5 9.9 -10.9 20.4 -13 23.3 l-3.8 5.3 -1.7 -2.5z"/>
 </g>
 <g fill="#000000">
  <path d="M279.5 247 c-13.3 -5.2 -20.4 -18.4 -20.5 -38.1 0 -2.6 -0.6 -5.1 -1.2 -5.6 -0.7 -0.5 -49 -10.5 -107.3 -22.2 -70.9 -14.3 -106.8 -21.9 -108.5 -23 -3 -2.1 -7 -8.9 -6.3 -10.7 0.2 -0.6 0 -1.5 -0.6 -1.8 -0.8 -0.6 -0.7 -4.8 0.3 -12.8 0.6 -4.2 4.2 -8.4 8.6 -10.2 3.7 -1.4 4.8 -1.5 12.3 -0.1 4.5 0.8 9.8 1.9 11.7 2.5 9.3 2.8 197.3 45 200.4 45 l3.7 0 -1.5 -2.7 c-6.3 -12.1 -56.8 -25.6 -181.1 -48.3 -18.7 -3.4 -34.6 -6.8 -35.2 -7.4 -1 -0.9 0.1 -2.5 5 -7.4 l6.4 -6.3 54.9 11 c100.4 20.1 133.9 28.7 148.7 38.1 5.8 3.7 6.2 3.7 4.1 0.4 -6.1 -9.2 -47.1 -20.8 -158.9 -44.9 -22 -4.7 -40.8 -8.8 -41.7 -9.1 -2.8 -0.8 -2.1 -2.9 2.9 -8.7 3.6 -4.1 5.1 -5.2 6.3 -4.6 0.8 0.5 17.5 4.3 37 8.3 40.9 8.6 75.7 16.3 94.9 21.2 7.4 1.8 13.6 3.2 13.8 3.1 0.8 -0.9 -54 -18.9 -110.2 -36.2 -12.1 -3.8 -22.3 -7.3 -22.7 -7.9 -0.4 -0.6 1.3 -3.1 4 -5.8 l4.7 -4.7 10.5 3 c35.4 10.2 76.4 22.5 87.9 26.3 7.4 2.5 13.6 4.4 13.8 4.3 0.3 -0.4 -55.3 -26.2 -82.4 -38.3 -14.5 -6.4 -15.2 -6.9 -13.6 -8.6 2.1 -2.3 9.7 -6.8 11.6 -6.8 2 0 72.3 32.8 98.5 45.9 11.1 5.6 20.2 9.9 20.2 9.7 0 -0.3 -3.4 -2.7 -7.6 -5.5 -9.6 -6.5 -43.4 -23.4 -78.1 -39.1 -19.3 -8.8 -27.3 -12.9 -27.3 -14 0 -1.1 2.3 -2.4 7.3 -4.2 l7.3 -2.6 24.4 11.2 c42.4 19.4 64.5 31.3 80.2 42.9 11 8.1 22.6 18.6 28.7 26.1 3 3.6 6 6.6 6.5 6.6 0.6 0 2.4 -2.3 4 -5.2 6.8 -12.1 23.3 -25.1 50.6 -39.9 18.1 -9.8 67.8 -33.9 69.8 -33.9 3 0 13.2 4.5 13 5.7 -0.2 0.7 -14.7 8.4 -32.3 17.1 -28.1 14 -54.5 28.4 -54.5 29.7 0 0.3 9.3 -4.1 20.8 -9.8 11.4 -5.7 32 -15.7 45.7 -22.2 13.8 -6.5 25.4 -12.2 25.9 -12.6 1.1 -1 13.1 6.5 13.1 8.2 0 0.6 -15.3 8.6 -34 17.6 -45 21.8 -52.3 25.4 -50.5 24.9 2 -0.6 78.6 -25.8 91.8 -30.2 l10.2 -3.4 5.8 2.9 c7.4 3.8 9.3 5.3 8.4 6.7 -0.4 0.6 -14 5 -30.2 9.8 -38.8 11.5 -72.9 22.9 -91.7 30.7 -8.3 3.5 -15 6.5 -14.9 6.7 0.2 0.1 15.6 -3.5 34.2 -8.2 31.4 -7.8 112.9 -26.6 116.4 -26.9 1.2 -0.1 11.8 6.3 15 9 1 0.8 -2.7 2.3 -10 3.9 -66.3 14.5 -126.4 28.8 -149.4 35.5 -27.1 8 -41.7 14.9 -46.3 21.8 -1.1 1.7 0.2 1 3.5 -2 13.9 -12.5 49.1 -21.4 200.5 -50.7 l9.8 -1.9 4.9 4 c4.8 3.9 6 6 4.2 7.1 -0.5 0.3 -13 3 -27.8 6.1 -136.7 28.4 -174.7 38.6 -187.2 50.1 l-4.7 4.3 5.8 0.1 c4.1 0 31.9 -6 93.5 -20 48.2 -11.1 89.3 -20.7 91.2 -21.5 6.2 -2.6 27.3 -6.8 33.4 -6.6 7.1 0.2 10.7 1.9 13.6 6.6 2 3.3 2.5 9 1.8 20.3 -0.1 0.7 -2 3.2 -4.2 5.6 l-4.1 4.2 -106.5 21.9 c-58.6 12 -107.1 22.3 -107.7 22.8 -0.7 0.5 -1.3 3 -1.3 5.6 -0.1 14.4 -4.7 27.2 -11.9 33.2 -8 6.6 -20 8.6 -29.6 4.9z m0.5 -10.3 c0 -0.2 -1.5 -1.6 -3.2 -3.3 l-3.3 -2.9 2.9 3.3 c2.8 3 3.6 3.7 3.6 2.9z m14.7 -0.8 c3.8 -1.4 9 -6.5 11.6 -11.4 1.8 -3.3 2.2 -6.1 2.5 -16.8 0.4 -11.8 0.6 -12.9 2.6 -14.2 1.1 -0.7 50.7 -11.3 110.1 -23.5 91.4 -18.8 108.3 -22.5 109.8 -24.3 2.2 -2.5 1.9 -8.5 -0.4 -10 -1.1 -0.7 -29.6 5.5 -102.6 22.2 -86.8 19.9 -111.1 25 -120.5 25.1 -1.7 0 -1.8 1.6 -1.8 20 0 21.9 -0.4 24 -5.7 27.6 -3.6 2.4 -17 2.7 -19.9 0.4 -1.8 -1.4 -1.8 -1.4 -0.4 0.4 1.5 1.9 8.4 5.5 10.7 5.6 0.6 0 2.4 -0.5 4 -1.1z m-21.5 -52.1 c-0.4 -0.4 -5.5 -1.3 -11.2 -1.9 -6.4 -0.7 -49.7 -9.9 -110.2 -23.5 -54.8 -12.3 -100.3 -22.4 -101.2 -22.4 -3.9 0 -4.5 8.9 -0.8 10.9 1 0.6 48.4 10.5 105.3 22.1 56.9 11.6 104.2 21.5 105.1 22 1 0.6 3.3 1 5.2 1 1.9 0 4.2 0.7 5 1.6 1.8 1.7 2.1 6 0.6 6.9 -0.5 0.3 -1 -0.1 -1 -0.9 0 -0.8 -0.3 -1.7 -0.7 -1.9 -0.5 -0.3 -0.6 4.7 -0.4 11.1 0.2 6.5 0.6 10.9 0.8 10 0.6 -2.6 3.3 -2.2 3.5 0.5 0.2 1.2 0.4 -6.1 0.5 -16.2 0.2 -10.2 0 -18.8 -0.5 -19.3z m28.6 -18.8 c1.1 -1.8 1 -2 -2.1 -2 -1.8 0 -3.8 -0.5 -4.5 -1.2 -1.7 -1.7 -1.5 -8.4 0.4 -11.3 1.6 -2.4 1.5 -2.5 -0.5 -2.5 -1.8 0 -2.1 -0.6 -2.1 -4.8 0 -2.6 0.5 -5.3 1.2 -6 0.7 -0.7 1.1 -3.1 0.9 -5.5 -0.2 -3.6 0.3 -4.8 3.4 -8.4 2 -2.4 3.2 -4.3 2.6 -4.3 -0.6 0 -1.1 -0.8 -1.2 -1.7 0 -1.2 -0.6 -0.6 -1.6 1.5 -1.2 2.2 -2.4 3.2 -4 3.2 -1.9 0 -2.3 0.5 -2.3 3 0 2.4 -0.4 3 -2.1 3 -1.6 0 -1.9 0.4 -1.3 1.8 0.4 0.9 1 4.1 1.2 7 0.3 4.3 0.1 5.2 -1.2 5.2 -1.1 0 -1.6 0.9 -1.6 3 0 2.5 -0.4 3 -2.4 3 -2.2 0 -2.4 0.3 -2.2 5.3 l0.1 5.2 -3.6 0.3 c-2.9 0.2 -4.8 -0.5 -9.4 -3.7 -15.5 -10.9 -46.9 -19.2 -151.3 -40.1 -39.7 -7.9 -50.7 -9.8 -51.8 -8.9 -0.8 0.7 -1.3 1.3 -1.1 1.5 0.2 0.2 16.1 3.3 35.4 6.9 95.5 17.7 140.5 28.4 161 38.1 7.7 3.7 15.3 10 15.3 12.7 0 1.5 1.5 1.7 11.8 1.7 10.6 0 11.8 -0.2 13 -2z m19.5 -13.7 c16.3 -6.9 47.2 -14.8 114.2 -29.4 19.8 -4.3 35.3 -7.8 34.3 -7.8 -2.3 -0.1 -55.9 10.8 -86.1 17.5 -43.5 9.7 -65.5 16.9 -73.4 24 -3.6 3.4 -3.7 3.5 -0.5 1.4 1.9 -1.3 7 -3.8 11.5 -5.7z m-65.3 2.3 c0 -0.7 -11.2 -4.7 -11.7 -4.3 -0.2 0.2 2 1.3 4.9 2.5 5.7 2.1 6.8 2.4 6.8 1.8z m60 -18.1 c1.4 -0.8 2.1 -1.4 1.5 -1.4 -0.5 0 -2.1 0.6 -3.5 1.4 -1.4 0.8 -2 1.4 -1.5 1.4 0.6 0 2.1 -0.6 3.5 -1.4z m-64 -7.7 c-13.4 -6.3 -61 -17.8 -158.3 -38.1 -6.4 -1.4 -11.9 -2.2 -12.2 -1.8 -0.2 0.4 6.4 2.2 14.8 4 70.9 15.1 130.4 29.2 149.7 35.5 13 4.2 14.4 4.3 6 0.4z m9 -8.2 c0 -0.8 -16.7 -9.6 -18.1 -9.6 -0.8 0.1 -0.2 0.8 1.4 1.6 1.5 0.8 2.7 1.9 2.7 2.4 0 0.6 0.8 1 1.8 1 0.9 0.1 4 1.2 6.7 2.5 5.7 2.7 5.5 2.6 5.5 2.1z m73 -5.6 c1.9 -1.1 3.1 -1.9 2.5 -1.9 -0.5 0 -2.6 0.8 -4.5 1.9 -1.9 1.1 -3 1.9 -2.5 1.9 0.6 0 2.6 -0.8 4.5 -1.9z m-93 -4.4 c0 -0.9 -31.1 -12.6 -47.5 -17.9 -20.3 -6.6 -58.6 -17.9 -59.1 -17.4 -0.2 0.1 15.5 5.3 34.9 11.5 19.4 6.1 43.1 14 52.7 17.6 18.1 6.6 19 6.9 19 6.2z m88 -20 c11.6 -8.4 13 -9.8 6.5 -6.1 -7.3 4.1 -18.4 11.9 -23.5 16.5 l-4.5 4.1 6 -3.8 c3.3 -2.1 10.3 -6.9 15.5 -10.7z m52 -11.6 c6.3 -3.2 11.1 -5.9 10.5 -5.9 -0.5 0 -6.2 2.7 -12.5 5.9 -6.3 3.2 -11 5.9 -10.5 5.9 0.6 0 6.2 -2.7 12.5 -5.9z m-249.5 -5 c-1.1 -0.5 -2.7 -0.9 -3.5 -0.9 -0.9 0 -0.8 0.4 0.5 0.9 1.1 0.5 2.7 0.9 3.5 0.9 0.9 0 0.8 -0.4 -0.5 -0.9z m279.5 -9.5 c2.5 -1.3 4.1 -2.4 3.5 -2.4 -0.5 0 -3 1.1 -5.5 2.4 -2.5 1.3 -4 2.4 -3.5 2.4 0.6 0 3 -1.1 5.5 -2.4z"/>
 </g>
 <g fill="#ffffff">
  <path d="M272.4 165.2 c-5.2 -5.1 -16.7 -12.3 -23.4 -14.7 -2.2 -0.8 -15.8 -4.3 -30.2 -7.9 -29.3 -7.3 -67.5 -15.2 -123.6 -25.6 -20.6 -3.8 -37.6 -7.1 -37.8 -7.3 -0.2 -0.2 1.6 -2.2 4 -4.6 l4.3 -4.2 52.6 10.5 c106.8 21.4 138.6 29.7 154.2 40.7 3.1 2.2 6 3.7 6.4 3.4 1.2 -0.7 0.1 -5.2 -1.5 -6.6 -0.8 -0.6 -1.4 -1.6 -1.4 -2.1 0 -1.6 -4 -4.6 -10.5 -8 -16.1 -8.3 -56.5 -18.9 -151 -39.3 -22 -4.8 -40.1 -8.8 -40.3 -9 -0.2 -0.2 1.1 -1.9 3 -3.9 l3.3 -3.5 39 8.4 c122.2 26.1 142.8 32.3 157.3 47.3 3.4 3.5 6.5 6.2 6.9 5.9 0.8 -0.8 -5 -8 -10 -12.3 -4.1 -3.5 -24.8 -14.4 -27.4 -14.4 -0.7 0 -2.1 -0.8 -3.1 -1.8 -3.4 -3.4 -42.6 -16.9 -108.2 -37.2 -20.1 -6.3 -36.7 -11.5 -36.9 -11.7 -0.3 -0.2 0.8 -1.6 2.3 -3.2 l2.8 -2.9 7.1 2 c51.2 14.1 97.7 28.7 121.2 37.9 17.9 7.1 25.4 10.7 35.4 17.2 8.7 5.6 13.3 10.3 16.2 16.5 2.1 4.3 3.9 5.5 3.9 2.5 0 -5.7 -11.3 -17.1 -24.3 -24.8 -18 -10.5 -67.6 -34.3 -127 -61 -7 -3.2 -12.7 -5.8 -12.7 -6 0 -0.1 1.8 -1.4 3.9 -2.8 l4 -2.6 40.5 18.9 c50.5 23.5 87.4 42.1 99.1 49.9 5.7 3.8 10.4 7.7 12.9 11 2.1 2.8 4.2 5.1 4.7 5.1 4.2 0 -7.4 -12.6 -17.6 -19 -4.8 -3 -11.4 -7.9 -14.8 -10.8 -3.4 -3 -9.6 -7.6 -13.7 -10.4 -9.4 -6.2 -45.1 -24.1 -76.7 -38.4 -13.3 -6 -23.9 -11.1 -23.7 -11.4 0.3 -0.2 2.5 -1.2 5.1 -2.2 l4.5 -1.7 21.8 9.9 c65 29.5 90.1 45.3 112 70.8 3.4 3.9 6.7 7.2 7.4 7.2 0.7 0 2.1 -1.9 3.3 -4.2 6.1 -12.5 16.3 -22 36.9 -34.4 12.8 -7.7 80.4 -41.4 83 -41.4 2.2 0 8.4 2.2 8.3 3 0 0.3 -12 6.4 -26.6 13.5 -32.2 15.7 -47.1 24.1 -62.2 34.9 -6.2 4.4 -14.8 10.4 -19 13.2 -7.8 5.3 -13.9 10.9 -12.9 12 0.4 0.3 3.1 -1.5 6.2 -4 10.8 -8.7 38.8 -23.5 99 -52.1 l26.9 -12.8 4.4 2.3 c2.4 1.3 4 2.7 3.6 3.1 -0.4 0.4 -10.5 5.3 -22.3 10.9 -11.8 5.6 -41.5 20.1 -65.9 32.1 -42.8 21.2 -44.6 22.2 -50.7 28.3 -6 6 -7.6 8.6 -5.5 8.6 0.6 0 2.2 -1.5 3.6 -3.4 3.2 -4.2 11.7 -10.2 21.2 -15 15.7 -7.8 44.1 -18.1 102.8 -37 l38.7 -12.5 5.4 2.7 5.3 2.6 -31.2 9.3 c-39.9 11.9 -68.3 21.5 -87.8 29.7 -17.6 7.3 -35.1 15.3 -35.9 16.4 -0.3 0.4 -3.6 2.1 -7.3 3.6 -7.6 3.2 -17.7 11.6 -17.7 14.7 0 1.5 1.2 0.7 5.3 -3.4 8.9 -9.1 23.5 -14.2 82.2 -28.7 33.5 -8.3 106.1 -25 109.5 -25.3 0.8 0 3.5 1.2 5.9 2.8 l4.3 2.9 -6.3 1.4 c-65.2 14.2 -123.9 28.3 -152.7 36.6 -22.8 6.5 -32.9 11.4 -41.4 19.7 -5.8 5.8 -6.7 8.3 -3.4 10.3 1.3 0.9 1.9 0.7 2.8 -0.8 2.5 -4.4 9.7 -9.7 17.8 -13.2 20.8 -8.7 65.2 -18.8 186.3 -42.2 l9.9 -1.9 2.9 2.4 c3.2 2.8 3.7 4.3 1.3 4.3 -1.9 0 -73.8 15.1 -107.9 22.7 -22.9 5 -45.6 10.5 -69.1 16.7 -17 4.4 -33.5 13 -38.1 19.8 l-1.8 2.8 -13.1 0 -13.2 0 -4.8 -4.8z"/>
 </g>
 <g fill="#ffca38">
  <path d="M286.8 239.8 c-4.7 -1.2 -11.3 -6.9 -14 -12.2 -1.9 -3.4 -2.3 -6.2 -2.6 -16.6 -0.4 -14.1 -1.4 -16.3 -6.2 -15.3 -1.7 0.3 -4 -0.1 -5.7 -1.1 -1.5 -0.8 -49.4 -11 -106.3 -22.7 -56.9 -11.6 -104.2 -21.5 -105.2 -22 -2.1 -1.1 -3.3 -6.7 -2.5 -11.5 0.7 -4.2 2.3 -6.4 4.7 -6.4 1 0 47.6 10.3 103.6 22.9 61.3 13.8 106 23.3 112.3 24 5.7 0.6 10.7 1.4 11.2 1.7 0.5 0.3 0.9 9.4 0.9 20.3 0 19 0.1 20 2.3 23.2 4.9 7.3 16.5 7.3 21.4 0 2.2 -3.2 2.3 -4.2 2.3 -23.2 0 -10.9 0.4 -20 0.8 -20.3 0.5 -0.3 5.3 -0.9 10.8 -1.5 6.2 -0.7 48.4 -9.9 112.4 -24.6 56.4 -12.9 103.2 -23.5 104.2 -23.5 4.7 0 6.9 13.9 2.8 18 -1.1 1.1 -2.3 2 -2.7 2 -2.5 0.1 -217.5 44.9 -218.1 45.5 -0.4 0.3 -0.9 6.6 -1.2 13.8 -0.5 12.1 -0.8 13.6 -3.2 17.9 -5.5 9.3 -13.8 13.7 -22 11.6z"/>
  <path d="M289.1 218.6 c-0.8 -0.9 -1.1 -7 -0.9 -19.7 l0.3 -18.4 2.5 0 2.5 0 0.3 18.4 c0.2 17.6 -0.2 21.1 -2.8 21.1 -0.4 0 -1.3 -0.6 -1.9 -1.4z"/>
 </g>
</svg>